<svg width="125" height="32" viewBox="0 0 125 32" fill="none" xmlns="http://www.w3.org/2000/svg">
<path d="M12.5909 0.692127C8.00208 0.846355 3.53411 1.58322 0.795805 2.64568C-0.0294367 2.9627 -0.0419404 2.97984 0.0247458 3.69957C0.25398 6.20149 1.00003 9.30747 2.07535 12.2549C4.25098 18.2184 7.81453 24.319 11.6823 28.7102C11.9991 29.0658 12.3075 29.4214 12.3659 29.4942C12.5784 29.747 14.0288 31.1264 14.1622 31.1993C14.3915 31.3278 14.479 31.2978 15.0291 30.9165C16.9089 29.6099 18.8011 27.7677 20.7642 25.3429C22.3229 23.415 24.5236 20.1377 25.9157 17.6743C28.3164 13.4288 30.6671 7.54242 31.0547 4.80487C31.1464 4.16226 31.1255 3.9609 30.9505 3.81096C30.7838 3.66958 30.0627 3.27973 29.5126 3.0441C25.5114 1.30047 19.4846 0.465069 12.5909 0.692127ZM17.7424 1.67319C20.2098 1.80171 22.7856 2.11874 24.657 2.53001C25.6989 2.75707 27.4911 3.24117 27.3327 3.25402C27.3036 3.25831 26.9368 3.21975 26.52 3.17263C24.0651 2.89844 22.2646 2.81705 19.3012 2.84275C16.8588 2.86417 16.317 2.88987 15.0708 3.0441C12.3867 3.37826 10.0152 4.08514 7.17267 5.39608C6.04734 5.91874 6.00983 5.99585 6.45163 6.85268C8.71479 11.2439 11.8615 15.9693 14.7999 19.388C14.9625 19.5765 15.1167 19.765 15.15 19.8035C15.2 19.8721 15.1667 19.9363 14.9041 20.3605C14.7374 20.6261 14.3956 21.1487 14.1414 21.5172C13.7704 22.0698 13.6704 22.1855 13.6162 22.1512C13.3286 21.9884 12.1991 20.9431 11.3781 20.0863C9.46918 18.0856 7.66448 15.6565 5.6639 12.3835C4.15512 9.91581 2.30875 6.38571 1.13757 3.71671L1.06672 3.55391L1.18342 3.51107C1.74192 3.2883 3.65914 2.76564 4.73446 2.53429C6.62251 2.13587 9.54837 1.78029 11.7574 1.67747C12.9202 1.62606 16.7588 1.62178 17.7424 1.67319ZM22.3646 3.81524C23.6567 3.86665 24.6528 3.93948 26.4075 4.11941C28.0413 4.28221 30.0877 4.54354 30.1377 4.59495C30.1669 4.62066 30.0252 5.3361 29.8835 5.87162C29.35 7.92799 28.1288 11.1154 26.8076 13.9043C25.9282 15.7636 24.8612 17.7086 23.8526 19.3023C21.3018 23.3336 19.0095 26.234 16.7005 28.3589L16.3545 28.6802L16.9297 27.7806C19.0762 24.4175 20.9184 21.2858 22.052 19.0538C23.194 16.8004 24.3194 13.6516 24.907 11.0597C25.0904 10.2543 25.3822 8.71198 25.428 8.34783C25.478 7.90657 25.3405 7.76948 24.7362 7.64952C23.3149 7.37105 20.2974 7.33678 17.4048 7.56812C14.9791 7.76091 11.9991 8.20217 9.46501 8.74625C9.01488 8.8405 8.63977 8.91333 8.6356 8.90476C8.60226 8.86621 8.04793 7.85944 7.68532 7.18255C7.46026 6.75843 7.28937 6.40284 7.30605 6.38571C7.3644 6.3343 8.48139 5.84163 9.11074 5.59315C11.7115 4.55211 13.958 4.03373 16.6546 3.85808C18.0008 3.7724 20.7225 3.75098 22.3646 3.81524ZM2.37127 8.42066C5.88063 15.1553 9.74426 20.3776 13.1578 22.9909C13.8371 23.505 13.908 23.4879 14.5123 22.6311C17.2173 18.7925 19.5096 14.0971 21.0559 9.24321L21.3393 8.3564H21.8812C22.7231 8.36068 24.2819 8.48921 24.4027 8.5706C24.4944 8.6263 24.0568 10.687 23.59 12.4049C23.0023 14.5555 22.1729 16.7275 21.2393 18.5783C19.9889 21.0545 17.2548 25.6428 15.125 28.8344C14.7416 29.4128 14.3956 29.9355 14.3581 29.9912L14.2873 30.0983L13.3787 29.1557C10.4403 26.114 7.6103 21.9756 5.26795 17.3102C3.65081 14.0928 2.37543 10.687 1.67106 7.72235C1.37097 6.47567 1.37514 6.47996 1.55019 6.83554C1.63355 6.99834 2.00032 7.71378 2.37127 8.42066ZM20.364 8.37354C20.364 8.40781 19.8514 9.93295 19.643 10.5199C18.6635 13.2746 17.4257 16.0078 16.0794 18.3941C15.7419 18.9981 15.721 19.0281 15.6585 18.9467C15.621 18.8996 15.3751 18.604 15.1083 18.2912C13.7288 16.6504 12.0116 14.2985 10.5403 12.0407C10.0318 11.2525 9.14408 9.80871 9.16076 9.79158C9.1816 9.77444 10.8404 9.43599 11.5698 9.30319C14.0664 8.8405 16.8713 8.51491 19.3012 8.40352C20.3682 8.3564 20.364 8.3564 20.364 8.37354Z" fill="url(#paint0_linear_9746_1511)"/>
<path d="M41.9753 9.20848C40.9333 9.43125 40.0997 9.8768 39.3495 10.6051C38.345 11.5862 37.8491 12.7986 37.8616 14.2637C37.8657 15.2277 38.0366 15.9817 38.4076 16.7142C38.841 17.5668 39.6579 18.3722 40.5624 18.8392C40.8624 18.9934 41.546 19.2333 41.9544 19.3233C42.4337 19.4304 43.5341 19.4346 44.0425 19.3275C45.2846 19.0705 46.2265 18.4536 46.9309 17.4425C47.0309 17.2969 47.1226 17.1512 47.1309 17.1255C47.1434 17.0784 45.0053 15.9988 44.9053 15.9988C44.8845 15.9988 44.7427 16.0973 44.5885 16.2216C44.0634 16.6328 43.6633 16.7485 42.8839 16.7185C42.4963 16.7014 42.342 16.6757 42.1628 16.5986C41.4709 16.2987 41.0208 15.7803 40.8041 15.0306C40.7499 14.8464 40.7291 14.6364 40.7291 14.2637C40.7332 13.8267 40.7499 13.6982 40.8416 13.4069C41.0458 12.7729 41.4209 12.3102 41.9544 12.0403C42.3504 11.8346 42.5921 11.7789 43.0381 11.7832C43.6966 11.7832 44.1176 11.9375 44.6219 12.353C44.8761 12.5629 44.8845 12.5672 45.0137 12.5115C45.2095 12.4216 47.0976 11.4962 47.1143 11.4791C47.1643 11.4319 46.5224 10.5837 46.239 10.3223C45.1554 9.3113 43.4924 8.8786 41.9753 9.20848Z" fill="black"/>
<path d="M52.728 9.16052C51.9944 9.30618 51.4151 9.52467 50.8607 9.85883C49.1436 10.8913 48.235 12.6992 48.41 14.7384C48.5434 16.2764 49.1602 17.4546 50.2939 18.3328C51.04 18.9112 52.0403 19.3181 52.978 19.4252C54.5993 19.6137 56.3707 18.9112 57.4543 17.6559C58.2546 16.7263 58.6297 15.6595 58.6297 14.3272C58.6297 12.8534 58.1671 11.6667 57.2126 10.6814C56.5332 9.98736 55.6788 9.49897 54.691 9.2462C54.1659 9.10911 53.1906 9.06627 52.728 9.16052ZM54.2242 11.8895C54.9828 12.1551 55.558 12.832 55.7288 13.6631C55.9206 14.5971 55.6872 15.5053 55.1037 16.1051C54.6702 16.5506 54.1409 16.7691 53.4907 16.7691C52.1528 16.7691 51.165 15.5953 51.2609 14.113C51.3401 12.9048 52.0778 11.9966 53.1447 11.7995C53.4365 11.7481 53.9283 11.7867 54.2242 11.8895Z" fill="black"/>
<path d="M65.8563 9.12689C65.1519 9.22114 64.7143 9.37536 64.2683 9.6881C63.9307 9.92373 63.4931 10.4207 63.3347 10.7377L63.2097 10.999V10.1379V9.27254H61.7301H60.2505L60.2588 14.2721L60.2713 19.2759L61.7426 19.2888L63.2097 19.2974V16.4998C63.2097 14.1179 63.218 13.6638 63.2722 13.4496C63.4931 12.5756 64.1141 11.9458 64.8977 11.7959C65.0352 11.7702 65.3061 11.7573 65.4937 11.7702C66.2981 11.8216 66.8899 12.3614 67.1608 13.2953C67.2192 13.5052 67.2317 13.8822 67.2442 16.4184L67.2567 19.2974L68.7238 19.2888L70.1909 19.2759L70.2117 16.4056C70.2368 13.1497 70.2076 13.4024 70.6035 12.7941C71.0328 12.13 71.6538 11.7573 72.3415 11.7573C73.2793 11.7573 73.8837 12.2243 74.1379 13.1411C74.1712 13.2696 74.1962 14.1907 74.2087 16.2985L74.2338 19.2759L75.705 19.2888L77.1721 19.2974V16.3285C77.1721 12.8669 77.1471 12.5113 76.822 11.6245C76.3594 10.3521 75.5341 9.57243 74.2963 9.24256C73.6211 9.05834 72.6583 9.09261 71.9623 9.32395C71.6038 9.43963 71.1662 9.66668 70.8578 9.89374C70.5368 10.1294 69.9783 10.7334 69.8158 11.0205C69.7491 11.1404 69.6824 11.239 69.6699 11.239C69.6574 11.239 69.5574 11.1061 69.4449 10.9433C68.853 10.078 67.8819 9.40107 66.9608 9.20828C66.6649 9.14402 66.0522 9.10118 65.8563 9.12689Z" fill="black"/>
<path d="M83.6744 9.1822C83.1159 9.30644 82.5366 9.61061 82.1239 9.9919L81.9656 10.1376V9.70486V9.27217H80.4859H79.0063V16.1053V22.9385H80.4859H81.9656V20.6165V18.2902L82.0697 18.4444C82.1239 18.5301 82.2823 18.6886 82.424 18.7957C83.095 19.3141 83.9703 19.5369 84.9373 19.4341C86.7836 19.237 88.3091 18.0375 88.9259 16.3067C89.5011 14.6873 89.301 12.6095 88.4425 11.2728C88.1799 10.8659 87.5213 10.189 87.1546 9.94477C86.2918 9.37927 85.5916 9.14793 84.633 9.11794C84.1495 9.10509 83.9578 9.11794 83.6744 9.1822ZM84.7247 11.8683C85.5333 12.0783 86.1334 12.738 86.3252 13.6248C86.4127 14.0318 86.3877 14.7944 86.2793 15.12C86.0001 15.9554 85.4541 16.4995 84.6914 16.7051C84.3788 16.7865 83.7202 16.7865 83.4035 16.7051C82.6491 16.4995 82.0781 15.844 81.903 14.9786C81.8238 14.5759 81.8238 13.869 81.903 13.5177C82.1573 12.4124 83.0534 11.7141 84.1412 11.7784C84.3204 11.7869 84.583 11.8298 84.7247 11.8683Z" fill="black"/>
<path d="M94.635 9.14778C94.0098 9.24203 93.2888 9.53335 92.7095 9.92749C91.6341 10.6515 90.9548 11.7097 90.6714 13.0977C90.5672 13.599 90.5505 14.5886 90.6339 15.1712C90.9131 17.1505 92.0926 18.6328 93.8431 19.2026C94.4391 19.3954 94.7225 19.4425 95.3644 19.4382C95.827 19.4382 96.0188 19.4211 96.2813 19.3482C96.8148 19.1983 97.2691 18.9455 97.5984 18.6114L97.886 18.3243V18.8085V19.2968L99.3572 19.2883L100.824 19.2754L100.837 14.2716L100.845 9.27202H99.3656H97.886V9.72614V10.1845L97.6692 9.97033C97.2483 9.56763 96.6023 9.2506 95.9687 9.14778C95.6562 9.09637 94.9726 9.09637 94.635 9.14778ZM96.5189 11.8853C97.3066 12.1338 97.8443 12.8578 97.9735 13.8389C98.0902 14.7514 97.8526 15.6125 97.3316 16.1437C96.9065 16.585 96.4522 16.7692 95.7979 16.7692C95.3102 16.7692 95.0476 16.7135 94.6809 16.5293C94.1099 16.2423 93.7056 15.7068 93.5222 15.0084C93.4263 14.6229 93.4263 13.8346 93.5264 13.4962C93.6431 13.0977 93.8181 12.7721 94.0765 12.4894C94.6392 11.8639 95.6603 11.6111 96.5189 11.8853Z" fill="black"/>
<path d="M108.032 9.18258C107.607 9.27255 107.148 9.4739 106.782 9.73095C106.481 9.94087 105.981 10.4721 105.823 10.7548L105.702 10.9648L105.69 10.1165L105.681 9.27255H104.222H102.764V14.285V19.2974H104.222H105.681V16.4741V13.6509L105.844 13.3167C106.227 12.5285 106.89 11.9415 107.561 11.7959C107.682 11.7702 107.932 11.7573 108.119 11.7659C108.899 11.8087 109.27 12.2157 109.391 13.1754C109.411 13.351 109.432 14.799 109.432 16.397V19.2974L110.904 19.2888L112.371 19.2759V16.0843C112.371 13.1797 112.362 12.8541 112.296 12.4471C112.041 10.9733 111.341 9.95372 110.241 9.43963C109.599 9.13974 108.711 9.03692 108.032 9.18258Z" fill="black"/>
<path d="M113.738 9.30211C113.746 9.34495 114.68 11.4999 115.809 14.0917C116.939 16.6836 117.868 18.8342 117.881 18.8728C117.893 18.9114 117.506 19.8239 117.022 20.9035C116.539 21.9788 116.143 22.8784 116.143 22.8999C116.143 22.9256 116.735 22.9341 117.61 22.9299L119.073 22.917L122.028 16.1267C123.649 12.3909 124.987 9.31067 125 9.28068C125.012 9.24213 124.708 9.22928 123.549 9.22928H122.082L120.744 12.4038C120.006 14.1474 119.39 15.574 119.369 15.574C119.352 15.574 118.835 14.3959 118.218 12.9479C117.606 11.5041 116.997 10.0775 116.868 9.77336L116.635 9.22928H115.176C113.805 9.22928 113.717 9.23356 113.738 9.30211Z" fill="black"/>
<defs>
<linearGradient id="paint0_linear_9746_1511" x1="15.5541" y1="31.2678" x2="15.5541" y2="0.655542" gradientUnits="userSpaceOnUse">
<stop stop-color="#5D45F8"/>
<stop offset="1" stop-color="#F3055B"/>
</linearGradient>
</defs>
</svg>
