<svg width="20" height="20" viewBox="0 0 20 20" fill="none" xmlns="http://www.w3.org/2000/svg">
<path d="M5.83317 3.33337L3.5415 5.00004M14.1665 3.33337L16.4582 5.00004M8.33317 10.8334H11.6665M9.99984 9.16671V12.5M4.1665 10.8334C4.1665 11.5994 4.31739 12.358 4.61054 13.0657C4.90369 13.7734 5.33337 14.4165 5.87505 14.9582C6.41672 15.4998 7.05978 15.9295 7.76752 16.2227C8.47525 16.5158 9.23379 16.6667 9.99984 16.6667C10.7659 16.6667 11.5244 16.5158 12.2322 16.2227C12.9399 15.9295 13.583 15.4998 14.1246 14.9582C14.6663 14.4165 15.096 13.7734 15.3891 13.0657C15.6823 12.358 15.8332 11.5994 15.8332 10.8334C15.8332 10.0673 15.6823 9.30879 15.3891 8.60105C15.096 7.89332 14.6663 7.25026 14.1246 6.70858C13.583 6.16691 12.9399 5.73723 12.2322 5.44408C11.5244 5.15092 10.7659 5.00004 9.99984 5.00004C9.23379 5.00004 8.47525 5.15092 7.76752 5.44408C7.05978 5.73723 6.41672 6.16691 5.87505 6.70858C5.33337 7.25026 4.90369 7.89332 4.61054 8.60105C4.31739 9.30879 4.1665 10.0673 4.1665 10.8334Z" stroke="#95A0B2" stroke-width="1.5" stroke-linecap="round" stroke-linejoin="round"/>
</svg>
