<svg width="24" height="25" viewBox="0 0 24 25" fill="none" xmlns="http://www.w3.org/2000/svg">
<mask id="path-1-inside-1_9766_229" fill="white">
<path d="M9.99555 15.0649L9.72332 18.8939C10.1128 18.8939 10.2815 18.7266 10.4838 18.5257L12.3098 16.7805L16.0936 19.5515C16.7875 19.9382 17.2764 19.7346 17.4636 18.9131L19.9473 7.2752L19.948 7.27452C20.1681 6.24869 19.577 5.84755 18.9009 6.09921L4.30209 11.6884C3.30575 12.0752 3.32084 12.6306 4.13272 12.8823L7.86505 14.0432L16.5345 8.61851C16.9425 8.34834 17.3135 8.49782 17.0083 8.768L9.99555 15.0649Z"/>
</mask>
<path d="M9.99555 15.0649L9.72332 18.8939C10.1128 18.8939 10.2815 18.7266 10.4838 18.5257L12.3098 16.7805L16.0936 19.5515C16.7875 19.9382 17.2764 19.7346 17.4636 18.9131L19.9473 7.2752L19.948 7.27452C20.1681 6.24869 19.577 5.84755 18.9009 6.09921L4.30209 11.6884C3.30575 12.0752 3.32084 12.6306 4.13272 12.8823L7.86505 14.0432L16.5345 8.61851C16.9425 8.34834 17.3135 8.49782 17.0083 8.768L9.99555 15.0649Z" fill="currentColor"/>
<path d="M9.99555 15.0649L-4.25742 -0.808496L-10.6726 4.95183L-11.2841 13.552L9.99555 15.0649ZM9.72332 18.8939L-11.5563 17.381L-13.1806 40.2272H9.72332V18.8939ZM10.4838 18.5257L-4.2556 3.10289L-4.40406 3.24477L-4.54977 3.38949L10.4838 18.5257ZM12.3098 16.7805L24.9144 -0.431008L10.493 -10.9922L-2.42955 1.35775L12.3098 16.7805ZM16.0936 19.5515L3.48905 36.763L4.55456 37.5433L5.70819 38.1863L16.0936 19.5515ZM17.4636 18.9131L38.2637 23.653L38.2964 23.5095L38.3271 23.3656L17.4636 18.9131ZM19.9473 7.2752L4.85694 -7.80435L0.399801 -3.34402L-0.916244 2.82271L19.9473 7.2752ZM19.948 7.27452L35.0383 22.3541L39.4863 17.9029L40.8065 11.7502L19.948 7.27452ZM18.9009 6.09921L11.4592 -13.8941L11.366 -13.8594L11.2732 -13.8239L18.9009 6.09921ZM4.30209 11.6884L-3.32558 -8.23466L-3.3716 -8.21704L-3.41754 -8.19921L4.30209 11.6884ZM4.13272 12.8823L10.4688 -7.48842L10.4589 -7.49153L10.4489 -7.49463L4.13272 12.8823ZM7.86505 14.0432L1.52892 34.4138L10.8796 37.3223L19.1811 32.1279L7.86505 14.0432ZM16.5345 8.61851L27.8505 26.7033L28.0836 26.5574L28.3128 26.4056L16.5345 8.61851ZM17.0083 8.768L2.86644 -7.20444L2.81072 -7.1551L2.75535 -7.10538L17.0083 8.768ZM-11.2841 13.552L-11.5563 17.381L31.0029 20.4068L31.2752 16.5778L-11.2841 13.552ZM9.72332 40.2272C13.3115 40.2272 17.1837 39.368 20.827 37.2681C22.4286 36.3449 23.6159 35.392 24.3619 34.7409C24.7309 34.4189 25.0224 34.1433 25.2023 33.9702C25.3686 33.8102 25.5129 33.6662 25.5173 33.6618L-4.54977 3.38949C-4.99695 3.83364 -3.1749 1.85575 -0.479496 0.302164C2.9315 -1.66387 6.52467 -2.43945 9.72332 -2.43945V40.2272ZM25.2232 33.9484L27.0492 32.2033L-2.42955 1.35775L-4.2556 3.10289L25.2232 33.9484ZM-0.294708 33.9921L3.48905 36.763L28.6981 2.33995L24.9144 -0.431008L-0.294708 33.9921ZM5.70819 38.1863C8.55114 39.7707 16.5247 43.3064 25.771 39.118C34.9365 34.9663 37.5613 26.7353 38.2637 23.653L-3.33647 14.1732C-2.82128 11.9123 -0.534529 4.19388 8.16622 0.2527C16.9479 -3.72512 24.33 -0.280958 26.479 0.916707L5.70819 38.1863ZM38.3271 23.3656L40.8108 11.7277L-0.916244 2.82271L-3.39989 14.4606L38.3271 23.3656ZM35.0376 22.3548L35.0383 22.3541L4.85762 -7.80504L4.85694 -7.80435L35.0376 22.3548ZM40.8065 11.7502C41.7045 7.5653 42.2528 -1.75426 34.5531 -9.16391C26.5978 -16.8195 16.7516 -15.864 11.4592 -13.8941L26.3426 26.0925C21.7263 27.8108 12.5136 28.841 4.96789 21.5795C-2.32229 14.564 -1.58845 5.95791 -0.910599 2.79885L40.8065 11.7502ZM11.2732 -13.8239L-3.32558 -8.23466L11.9298 31.6115L26.5285 26.0223L11.2732 -13.8239ZM-3.41754 -8.19921C-5.07956 -7.55408 -7.70396 -6.33255 -10.3163 -4.04403C-12.8089 -1.86044 -17.046 2.91585 -17.7115 10.4617C-18.4389 18.7085 -14.476 24.8776 -10.8923 28.2279C-7.62014 31.2869 -4.17636 32.6414 -2.18342 33.2591L10.4489 -7.49463C12.0359 -7.00271 15.1733 -5.81204 18.2455 -2.93997C21.6291 0.223317 25.4982 6.18215 24.7902 14.2103C24.1439 21.5375 20.0392 26.0867 17.7986 28.0495C15.4382 30.1173 13.1856 31.1243 12.0217 31.5761L-3.41754 -8.19921ZM-2.20341 33.2529L1.52892 34.4138L14.2012 -6.32751L10.4688 -7.48842L-2.20341 33.2529ZM19.1811 32.1279L27.8505 26.7033L5.21847 -9.46625L-3.45098 -4.0416L19.1811 32.1279ZM28.3128 26.4056C26.468 27.6272 24.1953 28.695 21.5281 29.298C19.2626 29.8102 14.9432 30.3788 9.9216 28.6017C7.27774 27.6661 3.62156 25.7636 0.558269 22.0022C-2.74488 17.9462 -4.38512 12.883 -4.19854 7.80874C-3.87362 -1.02749 1.56517 -6.0523 2.86644 -7.20444L31.1502 24.7404C32.604 23.4532 38.1109 18.3084 38.4393 9.37659C38.8893 -2.85984 29.9573 -9.56745 24.1561 -11.6205C19.0289 -13.435 14.5593 -12.87 12.119 -12.3182C9.27708 -11.6757 6.80493 -10.5253 4.75614 -9.16861L28.3128 26.4056ZM2.75535 -7.10538L-4.25742 -0.808496L24.2485 30.9382L31.2613 24.6414L2.75535 -7.10538Z" fill="currentColor" mask="url(#path-1-inside-1_9766_229)"/>
</svg>
